<svg xmlns="http://www.w3.org/2000/svg" version="1.1"
    xmlns:xlink="http://www.w3.org/1999/xlink" width="44" height="44" x="0" y="0" viewBox="0 0 24 24" style="enable-background:new 0 0 512 512" xml:space="preserve" class="">
    <g>
        <g fill="#FFFFFF">
            <path d="M17.62 9.62h-5.25c-.41 0-.75-.34-.75-.75s.34-.75.75-.75h5.25a.749.749 0 1 1 0 1.5zM7.12 10.38c-.19 0-.38-.07-.53-.22l-.75-.75c-.29-.29-.29-.77 0-1.06s.77-.29 1.06 0l.22.22 1.72-1.72c.29-.29.77-.29 1.06 0 .29.29.29.77 0 1.06l-2.25 2.25a.75.75 0 0 1-.53.22zM17.62 16.62h-5.25c-.41 0-.75-.34-.75-.75s.34-.75.75-.75h5.25a.749.749 0 1 1 0 1.5zM7.12 17.38c-.19 0-.38-.07-.53-.22l-.75-.75c-.29-.29-.29-.77 0-1.06s.77-.29 1.06 0l.22.22 1.72-1.72c.29-.29.77-.29 1.06 0 .29.29.29.77 0 1.06l-2.25 2.25a.75.75 0 0 1-.53.22z" fill="#FFFFFF" opacity="1" data-original="#FFFFFF"></path>
            <path d="M15 22.75H9c-5.43 0-7.75-2.32-7.75-7.75V9c0-5.43 2.32-7.75 7.75-7.75h6c5.43 0 7.75 2.32 7.75 7.75v6c0 5.43-2.32 7.75-7.75 7.75zm-6-20C4.39 2.75 2.75 4.39 2.75 9v6c0 4.61 1.64 6.25 6.25 6.25h6c4.61 0 6.25-1.64 6.25-6.25V9c0-4.61-1.64-6.25-6.25-6.25z" fill="#FFFFFF" opacity="1" data-original="#FFFFFF"></path>
        </g>
    </g>
</svg>
